<svg width="100" height="100" viewBox="0 0 100 100" fill="none" xmlns="http://www.w3.org/2000/svg">
<g filter="url(#filter0_f_3_2)">
<rect width="15.5307" height="30.3554" transform="matrix(0.874868 -0.484362 0.874868 0.484362 42.0478 73.9056)" fill="#1050E0"/>
</g>
<g filter="url(#filter1_f_3_2)">
<circle cx="16.1288" cy="16.1288" r="16.1288" transform="matrix(0.847998 -0.529999 0.847998 0.529999 7 71.5122)" fill="#1050E0"/>
</g>
<path d="M64.9647 35.8331C59.1527 33.6309 52.709 34.4549 48.948 35.2876C48.5385 35.3805 48.1539 35.5571 47.8193 35.8057C47.4847 36.0544 47.2078 36.3694 47.0068 36.7302C46.8059 37.091 46.6854 37.4892 46.6533 37.8988C46.6212 38.3083 46.6782 38.7199 46.8207 39.1063C47.0599 39.7789 47.5439 40.342 48.1806 40.6883C48.8173 41.0346 49.5621 41.1399 50.2732 40.9841C54.5337 40.051 63.1371 39.0575 67.6621 44.7856C71.7345 49.9538 69.9451 54.5478 68.3291 56.9998C67.9562 57.5586 67.79 58.225 67.8579 58.8887C67.9257 59.5524 68.2236 60.1736 68.7022 60.6492C69.0132 60.9593 69.3913 61.1975 69.8088 61.346C70.2264 61.4946 70.6727 61.5498 71.1149 61.5077C71.5572 61.4656 71.9841 61.3271 72.3644 61.1025C72.7447 60.8779 73.0686 60.5729 73.3124 60.2099C76.1978 55.8054 78.1783 48.567 72.3869 41.2282C70.4741 38.7907 67.9038 36.9224 64.9647 35.8331Z" fill="#F3F3F3"/>
<path d="M49.7002 34.3458L49.8354 34.254C49.8899 34.2152 49.9468 34.1798 50.0058 34.1477C51.1635 33.4299 55.4152 31.1875 58.3888 34.8282C61.3623 38.4689 58.4123 42.0063 57.4808 42.9911C57.4278 43.052 57.3709 43.1095 57.3104 43.1634L57.2164 43.2524C56.5435 43.795 55.5033 43.9042 54.2546 43.4476C51.7599 42.5374 49.3799 39.715 48.9392 37.151C48.7217 35.8676 49.0273 34.8885 49.7002 34.3458Z" fill="url(#paint0_linear_3_2)"/>
<path d="M19.2682 41.9632L41.1527 29.6169C42.2957 28.9709 43.3094 28.9106 44.0557 29.3039L44.1644 29.3671L56.0028 36.2351C56.0452 36.26 56.0816 36.2936 56.1096 36.3334C56.1376 36.3733 56.1565 36.4185 56.1652 36.4661C56.1738 36.5137 56.1719 36.5625 56.1596 36.6094C56.1473 36.6562 56.1249 36.6999 56.0939 36.7375L41.5493 54.1946L41.4641 54.6713C41.2492 55.8233 40.8327 56.9306 40.233 57.9445L36.8569 63.7357C36.822 63.799 36.8066 63.8708 36.8128 63.9425L34.9939 73.808C35.0013 73.8702 35.9995 76.9712 35.9995 76.9712C35.9995 76.9712 35.9292 77.0759 35.8754 77.1099C35.8217 77.1439 35.7592 77.1626 35.6952 77.1638C35.6311 77.165 33.1391 76.4241 33.084 76.3921L26.8578 73.1706L20.1879 69.2542C19.8599 69.0409 19.5808 68.7633 19.3684 68.4391C19.1559 68.1149 19.0148 67.751 18.9538 67.3707L15.181 49.9911C14.6139 47.3697 16.6002 43.4677 19.2682 41.9632Z" fill="url(#paint1_linear_3_2)"/>
<path d="M57.0959 39.8557L53.3231 61.4933C53.1085 62.6459 52.6909 63.7534 52.089 64.7665L41.6051 74.1928C39.7628 77.3511 38.2261 75.2603 38.2261 75.2603L32.0557 76.0734C31.7274 75.8611 31.4481 75.5841 31.2356 75.2603C31.0231 74.9365 30.8821 74.5729 30.8216 74.1928L27.04 56.8103C26.4729 54.1918 28.4563 50.2898 31.1242 48.7709L53.0117 36.4246C55.6796 34.9316 57.663 36.594 57.0959 39.8557Z" fill="#BEBEBE"/>
<path d="M34.0273 56.3825C33.9426 56.3833 33.8592 56.3615 33.7863 56.3194C33.6961 56.2632 33.6232 56.1841 33.5755 56.0905C33.5279 55.9969 33.5073 55.8924 33.516 55.7882V54.0654C33.5183 53.8865 33.565 53.7107 33.652 53.5532C33.739 53.3957 33.8637 53.2611 34.0155 53.161L35.6404 52.2422C35.7191 52.1939 35.8096 52.1669 35.9025 52.1639C35.9954 52.1608 36.0874 52.1819 36.1693 52.225C36.2606 52.281 36.3344 52.3604 36.3825 52.4546C36.4307 52.5488 36.4515 52.6541 36.4426 52.759V54.4818C36.4404 54.6612 36.3939 54.8374 36.3069 54.9954C36.2199 55.1534 36.0951 55.2885 35.943 55.3891L34.3182 56.2935C34.2313 56.3486 34.1307 56.3793 34.0273 56.3825ZM35.8373 52.8279L34.3182 53.6893C34.2588 53.737 34.2106 53.7965 34.1767 53.8638C34.1427 53.9311 34.1238 54.0048 34.1213 54.0798V55.7193L35.6404 54.8579C35.6997 54.8102 35.748 54.7507 35.7819 54.6834C35.8159 54.6161 35.8347 54.5424 35.8373 54.4674V52.8279Z" fill="#8B8B8B"/>
<path d="M39.7305 52.9055L38.1056 53.8214C37.9146 53.9305 37.7589 53.8214 37.7589 53.5658V51.8431C37.7612 51.7161 37.7937 51.5913 37.8539 51.4787C37.9141 51.366 38.0002 51.2686 38.1056 51.1942L39.7305 50.2783C39.9244 50.1692 40.0802 50.2783 40.0802 50.5338V52.2566C40.078 52.3839 40.0453 52.509 39.9845 52.6218C39.9238 52.7345 39.8368 52.8317 39.7305 52.9055Z" fill="#1A89FF"/>
<path d="M37.9675 54.1602C37.8828 54.161 37.7995 54.1392 37.7266 54.097C37.6358 54.0413 37.5623 53.9623 37.5141 53.8687C37.466 53.775 37.4449 53.6703 37.4533 53.5658V51.8431C37.456 51.6639 37.5031 51.488 37.5906 51.3304C37.6781 51.1729 37.8034 51.0385 37.9558 50.9387L39.5807 50.0199C39.6596 49.9708 39.7506 49.9433 39.8442 49.9402C39.9377 49.9372 40.0304 49.9587 40.1125 50.0026C40.2014 50.0601 40.2733 50.1394 40.3207 50.2327C40.3682 50.326 40.3896 50.4299 40.3828 50.5338V52.2566C40.3812 52.4361 40.3349 52.6125 40.2478 52.7706C40.1608 52.9286 40.0357 53.0636 39.8833 53.1639L38.2584 54.0827C38.17 54.1328 38.0697 54.1595 37.9675 54.1602ZM39.7746 50.6056L38.2584 51.467C38.1991 51.5147 38.1509 51.5741 38.1169 51.6415C38.083 51.7088 38.0641 51.7824 38.0616 51.8575V53.5113L39.5807 52.6499C39.6398 52.6016 39.6877 52.5416 39.7212 52.4737C39.7546 52.4059 39.7728 52.3318 39.7746 52.2566V50.6056Z" fill="#8B8B8B"/>
<path d="M41.9078 51.9379C41.8233 51.9373 41.7403 51.9156 41.6669 51.8747C41.5767 51.8176 41.5038 51.7379 41.4558 51.644C41.4077 51.5501 41.3863 51.4454 41.3936 51.3406V49.6179C41.396 49.4382 41.443 49.2618 41.5305 49.1038C41.618 48.9458 41.7435 48.8109 41.896 48.7106L43.5209 47.7947C43.5996 47.745 43.6907 47.7171 43.7844 47.7141C43.8781 47.711 43.9708 47.7329 44.0528 47.7774C44.143 47.8335 44.2159 47.9127 44.2635 48.0063C44.3112 48.0999 44.3318 48.2044 44.3231 48.3086V50.0314C44.321 50.2108 44.2744 50.387 44.1874 50.545C44.1004 50.703 43.9756 50.8381 43.8236 50.9387L42.1987 51.8575C42.1102 51.9078 42.0101 51.9354 41.9078 51.9379ZM43.7148 48.3804L42.1987 49.2418C42.1394 49.2895 42.0911 49.3489 42.0572 49.4163C42.0232 49.4836 42.0044 49.5572 42.0018 49.6323V51.2832L43.518 50.4218C43.5781 50.3742 43.6269 50.3144 43.6609 50.2464C43.6949 50.1785 43.7133 50.1041 43.7148 50.0285V48.3804Z" fill="#8B8B8B"/>
<path d="M45.8481 49.7586C45.7634 49.7594 45.68 49.7376 45.6071 49.6954C45.5163 49.6397 45.4428 49.5607 45.3947 49.4671C45.3465 49.3735 45.3255 49.2687 45.3339 49.1643V47.4415C45.3362 47.2626 45.3829 47.0868 45.4698 46.9293C45.5568 46.7718 45.6816 46.6372 45.8334 46.5371L47.4612 45.6183C47.5397 45.5694 47.6302 45.5421 47.7232 45.539C47.8163 45.536 47.9084 45.5574 47.9901 45.6011C48.0809 45.6568 48.1544 45.7358 48.2025 45.8294C48.2507 45.923 48.2717 46.0278 48.2634 46.1323V47.855C48.2618 48.0341 48.2154 48.2101 48.1284 48.3677C48.0413 48.5254 47.9162 48.6598 47.7638 48.7594L46.139 49.6782C46.0512 49.7302 45.9507 49.758 45.8481 49.7586ZM47.6551 46.204L46.139 47.0654C46.0796 47.1131 46.0314 47.1726 45.9975 47.2399C45.9635 47.3072 45.9446 47.3809 45.9421 47.4559V49.1155L47.4612 48.2541C47.5201 48.2063 47.5679 48.1467 47.6014 48.0793C47.6348 48.012 47.6531 47.9384 47.6551 47.8636V46.204Z" fill="#8B8B8B"/>
<path d="M51.5513 46.2815L49.9264 47.1975C49.7355 47.3066 49.5797 47.1975 49.5797 46.9419V45.2192C49.582 45.0921 49.6145 44.9674 49.6747 44.8547C49.7349 44.7421 49.8211 44.6447 49.9264 44.5703L51.5513 43.6544C51.7453 43.5452 51.901 43.6544 51.901 43.9099V45.6326C51.8988 45.76 51.8661 45.8851 51.8053 45.9978C51.7446 46.1105 51.6576 46.2077 51.5513 46.2815Z" fill="#EF4C4F"/>
<path d="M49.7883 47.5363C49.7038 47.5357 49.6208 47.514 49.5474 47.4731C49.4572 47.416 49.3844 47.3364 49.3363 47.2425C49.2883 47.1486 49.2668 47.0438 49.2741 46.9391V45.2163C49.2766 45.0367 49.3235 44.8603 49.4111 44.7022C49.4986 44.5442 49.624 44.4093 49.7766 44.309L51.4015 43.3931C51.4796 43.3434 51.5702 43.3154 51.6634 43.3124C51.7567 43.3094 51.849 43.3313 51.9304 43.3759C52.0212 43.4316 52.0946 43.5106 52.1428 43.6042C52.191 43.6978 52.212 43.8026 52.2036 43.907V45.6298C52.2013 45.8087 52.1546 45.9845 52.0676 46.142C51.9806 46.2995 51.8559 46.4341 51.7041 46.5342L50.0792 47.4501C49.9913 47.5024 49.8912 47.5321 49.7883 47.5363ZM51.5954 43.9788L50.0792 44.8402C50.0199 44.8879 49.9717 44.9474 49.9377 45.0147C49.9038 45.082 49.8849 45.1557 49.8824 45.2307V46.8816L51.4015 46.0203C51.4604 45.9724 51.5082 45.9128 51.5416 45.8455C51.5751 45.7782 51.5934 45.7046 51.5954 45.6298V43.9788Z" fill="white"/>
<path d="M34.0273 60.6175C33.9423 60.6173 33.859 60.5945 33.7863 60.5515C33.6986 60.4948 33.6281 60.4161 33.5821 60.3237C33.5361 60.2313 33.5163 60.1285 33.5248 60.0261V58.3033C33.5272 58.124 33.5738 57.9478 33.6608 57.7899C33.7478 57.6319 33.8725 57.4968 34.0243 57.396L35.6492 56.4801C35.7274 56.4304 35.818 56.4025 35.9112 56.3994C36.0044 56.3964 36.0967 56.4183 36.1781 56.4629C36.2689 56.5186 36.3424 56.5976 36.3906 56.6912C36.4387 56.7849 36.4598 56.8896 36.4514 56.9941V58.7168C36.4493 58.8962 36.4027 59.0724 36.3157 59.2304C36.2287 59.3884 36.1039 59.5235 35.9519 59.6241L34.327 60.5429C34.2357 60.5935 34.1322 60.6193 34.0273 60.6175ZM35.8373 57.0601L34.3182 57.9215C34.2588 57.9679 34.21 58.0257 34.1746 58.0914C34.1392 58.1571 34.118 58.2293 34.1125 58.3033V59.9543L35.6316 59.0929C35.6913 59.0449 35.7397 58.985 35.7737 58.9171C35.8076 58.8493 35.8263 58.7751 35.8284 58.6996L35.8373 57.0601Z" fill="#8B8B8B"/>
<path d="M37.9675 58.3923C37.8828 58.3932 37.7995 58.3713 37.7266 58.3292C37.6358 58.2734 37.5623 58.1945 37.5141 58.1008C37.466 58.0072 37.4449 57.9025 37.4533 57.798V56.0753C37.4558 55.8956 37.5028 55.7192 37.5903 55.5612C37.6778 55.4032 37.8032 55.2682 37.9558 55.168L39.5807 54.252C39.6594 54.2023 39.7505 54.1745 39.8441 54.1715C39.9378 54.1684 40.0306 54.1903 40.1125 54.2348C40.2028 54.2909 40.2756 54.37 40.3233 54.4636C40.3709 54.5573 40.3915 54.6618 40.3828 54.766V56.4887C40.3807 56.6681 40.3342 56.8444 40.2472 57.0024C40.1602 57.1604 40.0353 57.2954 39.8833 57.396L38.2584 58.3033C38.1716 58.3584 38.071 58.3892 37.9675 58.3923ZM39.7746 54.8378L38.2584 55.6991C38.199 55.7474 38.1508 55.8074 38.1168 55.8752C38.0829 55.943 38.0641 56.0171 38.0616 56.0925V57.7291L39.5807 56.8677C39.6394 56.8191 39.687 56.7589 39.7204 56.6912C39.7538 56.6234 39.7723 56.5496 39.7746 56.4744V54.8378Z" fill="#8B8B8B"/>
<path d="M43.6708 54.9153L42.0459 55.8312C41.8549 55.9403 41.6992 55.8312 41.6992 55.5757V53.8529C41.701 53.7254 41.7333 53.6001 41.7935 53.4869C41.8537 53.3737 41.9401 53.2759 42.0459 53.2012L43.6708 52.2853C43.8647 52.1761 44.0204 52.2853 44.0204 52.5437V54.2664C44.0183 54.3938 43.9855 54.5189 43.9248 54.6316C43.8641 54.7443 43.777 54.8415 43.6708 54.9153Z" fill="#1A89FF"/>
<path d="M41.9078 56.1701C41.8236 56.1701 41.7407 56.1494 41.6669 56.1098C41.5769 56.0524 41.5042 55.9728 41.4562 55.8789C41.4082 55.7851 41.3866 55.6804 41.3936 55.5757V53.853C41.3961 53.6733 41.443 53.4969 41.5306 53.3389C41.6181 53.1809 41.7435 53.0459 41.8961 52.9457L43.5209 52.0269C43.5999 51.9778 43.6909 51.9503 43.7845 51.9472C43.878 51.9442 43.9707 51.9658 44.0528 52.0097C44.142 52.0676 44.2139 52.1474 44.2614 52.2412C44.3088 52.335 44.3301 52.4393 44.3231 52.5437V54.2664C44.3207 54.4458 44.2741 54.622 44.1871 54.7799C44.1002 54.9379 43.9755 55.073 43.8236 55.1738L42.1987 56.0897C42.1106 56.1408 42.0103 56.1685 41.9078 56.1701ZM43.7149 52.6155L42.1987 53.4769C42.139 53.5249 42.0906 53.5848 42.0566 53.6527C42.0226 53.7205 42.004 53.7947 42.0018 53.8702V55.5212L43.518 54.6598C43.5777 54.6118 43.6262 54.5518 43.6601 54.484C43.6941 54.4161 43.7127 54.342 43.7149 54.2664V52.6155Z" fill="#8B8B8B"/>
<path d="M47.6111 52.7389L45.9862 53.6549C45.7952 53.764 45.6395 53.6549 45.6395 53.3965V51.6737C45.6413 51.5466 45.6736 51.4216 45.7338 51.3089C45.794 51.1962 45.8805 51.0989 45.9862 51.0248L47.6111 50.106C47.805 49.9998 47.9607 50.106 47.9607 50.3644V52.0872C47.9586 52.2149 47.9258 52.3404 47.8651 52.4536C47.8044 52.5668 47.7174 52.6645 47.6111 52.7389Z" fill="#EF4C4F"/>
<path d="M45.8481 53.9965C45.7634 53.9974 45.68 53.9755 45.6071 53.9334C45.5163 53.8776 45.4428 53.7987 45.3947 53.705C45.3465 53.6114 45.3255 53.5067 45.3339 53.4022V51.6795C45.336 51.5001 45.3825 51.3238 45.4695 51.1658C45.5565 51.0078 45.6813 50.8727 45.8334 50.7722L47.4612 49.8562C47.5391 49.8059 47.6298 49.7776 47.7231 49.7746C47.8165 49.7715 47.9089 49.7938 47.9901 49.839C48.0809 49.8947 48.1544 49.9737 48.2025 50.0673C48.2507 50.161 48.2717 50.2657 48.2634 50.3702V52.0929C48.2612 52.2723 48.2147 52.4486 48.1277 52.6066C48.0407 52.7646 47.9159 52.8996 47.7638 53.0002L46.139 53.9161C46.0512 53.9682 45.9507 53.996 45.8481 53.9965ZM47.6551 50.442L46.139 51.3033C46.0798 51.3518 46.0318 51.4119 45.9979 51.4796C45.964 51.5474 45.945 51.6213 45.9421 51.6967V53.3476L47.4583 52.4863C47.5181 52.4384 47.5666 52.3785 47.6006 52.3106C47.6346 52.2427 47.6532 52.1685 47.6551 52.0929V50.442Z" fill="white"/>
<path d="M49.7883 51.7685C49.704 51.7689 49.6211 51.7481 49.5474 51.7082C49.4575 51.6508 49.3848 51.5712 49.3367 51.4773C49.2887 51.3835 49.2671 51.2788 49.2741 51.1741V49.4514C49.2766 49.2717 49.3235 49.0953 49.4111 48.9373C49.4986 48.7793 49.624 48.6443 49.7766 48.5441L51.4015 47.6253C51.4812 47.5782 51.5727 47.5533 51.6659 47.5533C51.7591 47.5533 51.8506 47.5782 51.9304 47.6253C52.0212 47.681 52.0946 47.76 52.1428 47.8536C52.191 47.9473 52.212 48.052 52.2036 48.1565V49.8792C52.2015 50.0586 52.155 50.2348 52.068 50.3928C51.981 50.5508 51.8561 50.6859 51.7041 50.7865L50.0792 51.6996C49.99 51.7467 49.8898 51.7704 49.7883 51.7685ZM51.5954 48.2139L50.0792 49.0752C50.0195 49.1232 49.9711 49.1832 49.9371 49.2511C49.9032 49.3189 49.8845 49.3931 49.8824 49.4686V51.1253L51.4015 50.2639C51.4602 50.2153 51.5078 50.1552 51.5412 50.0874C51.5746 50.0196 51.5931 49.9458 51.5954 49.8706V48.2139Z" fill="white"/>
<path d="M22.7383 60.9018L22.5826 60.9592C22.5209 60.9822 22.4592 61.0081 22.3945 61.0253C21.0958 61.4588 16.4239 62.6648 14.4053 58.4412C12.3867 54.2176 16.1066 51.444 17.2466 50.7118C17.3122 50.6644 17.381 50.6213 17.4523 50.5826L17.564 50.5166C18.3485 50.1433 19.3857 50.2754 20.5023 51.0047C22.7089 52.4604 24.3485 55.748 24.1605 58.3436C24.0664 59.6413 23.5346 60.5228 22.7501 60.8961L22.7383 60.9018Z" fill="url(#paint2_linear_3_2)"/>
<path d="M58.6708 39.5829L50.329 44.3836L54.184 51.1253L54.7717 52.0757L54.8334 52.2451C55.9735 61.1976 61.9382 70.9282 69.3369 75.9097L73.6709 82.9012L81.1254 78.5656C81.3193 78.4651 81.5044 78.356 81.6748 78.2469L81.9686 78.0517C84.5661 76.2399 86 72.8059 86 68.3785C86 58.2431 78.6895 45.8738 69.7071 40.8147C67.1949 39.3992 64.7678 38.6785 62.5817 38.6785C61.2215 38.6583 59.8775 38.9692 58.6708 39.5829Z" fill="#0D1858"/>
<path d="M30.1399 79.0337C36.375 79.0337 42.0753 75.9902 45.2751 73.8827C45.622 73.6516 45.9149 73.3514 46.1346 73.0018C46.3542 72.6522 46.4956 72.2611 46.5495 71.8543C46.6033 71.4474 46.5684 71.0341 46.447 70.6414C46.3256 70.2486 46.1205 69.8855 45.8451 69.5758C45.373 69.0372 44.7155 68.6861 43.9966 68.5887C43.2777 68.4914 42.5472 68.6546 41.9431 69.0475C38.3201 71.4249 30.6659 75.3901 24.3279 71.646C18.6188 68.2723 18.5894 63.3596 19.1859 60.497C19.3266 59.8436 19.2347 59.1629 18.9253 58.5676C18.6159 57.9723 18.1076 57.4982 17.4846 57.2238C17.08 57.0448 16.6395 56.9566 16.1954 56.9657C15.7513 56.9749 15.315 57.0811 14.9185 57.2767C14.5219 57.4722 14.1752 57.7521 13.9039 58.0957C13.6326 58.4393 13.4434 58.838 13.3504 59.2624C12.2926 64.3875 13.1242 71.8384 21.2398 76.6333C23.9211 78.2248 27.0027 79.0559 30.1399 79.0337Z" fill="url(#paint3_linear_3_2)"/>
<path d="M58.6708 39.5829L49.3682 44.5215L54.184 51.1253L54.7717 52.0757L54.8334 52.2451C55.9735 61.1976 61.9382 70.9282 69.3369 75.9097L72.9216 83.9176L81.1253 78.5656C81.3193 78.4651 81.5044 78.356 81.6748 78.2469L81.9686 78.0517C84.5661 76.2399 86 72.8059 86 68.3785C86 58.2431 78.6895 45.8738 69.7071 40.8147C67.1949 39.3992 64.7678 38.6785 62.5817 38.6785C61.2215 38.6583 59.8775 38.9692 58.6708 39.5829Z" fill="url(#paint4_linear_3_2)"/>
<path d="M73.2527 83.7302C79.7019 80.0918 79.7021 68.2939 73.2532 57.379C66.8043 46.4642 56.3483 40.5655 49.899 44.2039C43.4498 47.8424 43.4495 59.6402 49.8985 70.5551C56.3474 81.47 66.8034 87.3687 73.2527 83.7302Z" fill="#F3F3F3"/>
<path d="M51.7746 73.0414L51.6189 73.0988C51.5578 73.1251 51.495 73.1472 51.4308 73.1649C50.1321 73.5984 45.4602 74.8043 43.4416 70.5808C41.423 66.3572 45.1429 63.5864 46.2829 62.8514C46.3486 62.804 46.4173 62.7609 46.4886 62.7222L46.6003 62.6562C47.3848 62.2829 48.422 62.4178 49.5386 63.1443C51.7452 64.6028 53.3848 67.8875 53.1968 70.4831C53.1027 71.7809 52.5709 72.6624 51.7864 73.0357L51.7746 73.0414Z" fill="url(#paint5_linear_3_2)"/>
<path d="M15.3955 17.7616V34.4147C15.3954 34.5132 15.4226 34.6098 15.4744 34.6943C15.5261 34.7788 15.6004 34.8479 15.6893 34.8942L29.3818 42.5949L52.3887 12.2029L37.6061 5.18561C37.6061 5.18561 37.233 4.9875 37.0978 4.89849C37.0276 4.85751 36.9474 4.83588 36.8657 4.83588C36.7839 4.83588 36.7037 4.85751 36.6336 4.89849L16.0008 16.7481C15.8188 16.8514 15.6673 16.9991 15.5612 17.1768C15.4551 17.3544 15.398 17.5559 15.3955 17.7616Z" fill="url(#paint6_linear_3_2)"/>
<path d="M29.3789 25.6202V42.592L52.6238 29.482V12.5848C52.6234 12.508 52.6024 12.4327 52.5629 12.3663C52.5234 12.2999 52.4668 12.2448 52.3987 12.2065C52.3307 12.1681 52.2535 12.1479 52.1749 12.1478C52.0963 12.1476 52.0191 12.1677 51.9509 12.2058L29.9989 24.5952C29.8122 24.6974 29.6565 24.8461 29.5477 25.0261C29.4388 25.2061 29.3806 25.4111 29.3789 25.6202Z" fill="#BEBEBE"/>
<path d="M31.2418 40.1917L51.2222 29.057C51.3302 28.9831 51.4187 28.8852 51.4805 28.7715C51.5423 28.6577 51.5756 28.5312 51.5778 28.4024V14.5487C51.5778 14.296 51.4191 14.1783 51.2222 14.2903L31.2418 25.4221C31.1338 25.496 31.0453 25.5938 30.9835 25.7076C30.9217 25.8214 30.8884 25.9479 30.8862 26.0767V39.9275C30.8804 40.183 31.0449 40.3008 31.2418 40.1917Z" fill="url(#paint7_linear_3_2)"/>
<path d="M36.2809 29.2637C36.1399 29.1691 36.0274 29.0394 35.955 28.8879C35.8827 28.7364 35.8532 28.5688 35.8696 28.4024C35.8944 27.9649 36.0241 27.5392 36.2481 27.1597C36.4722 26.7802 36.7843 26.4574 37.1595 26.2174C37.2934 26.1077 37.4585 26.0409 37.6325 26.026C37.8065 26.0111 37.981 26.0488 38.1324 26.134C38.2837 26.2193 38.4046 26.3479 38.4787 26.5025C38.5527 26.6571 38.5763 26.8302 38.5464 26.9983C38.5212 27.4365 38.3911 27.8627 38.1666 28.2427C37.942 28.6227 37.6293 28.9459 37.2535 29.1862C37.0719 29.2955 36.8643 29.3569 36.6512 29.3642C36.5208 29.3639 36.3929 29.3291 36.2809 29.2637Z" fill="#1A89FF"/>
<path d="M46.2477 23.6419C46.1073 23.5466 45.9953 23.4167 45.923 23.2654C45.8508 23.1141 45.8209 22.9468 45.8363 22.7805C45.8609 22.343 45.9905 21.9172 46.2145 21.5376C46.4386 21.1581 46.7509 20.8353 47.1262 20.5955C47.2596 20.4841 47.425 20.4158 47.5998 20.4C47.7745 20.3842 47.9499 20.4217 48.102 20.5073C48.254 20.5929 48.3752 20.7225 48.4488 20.8781C48.5224 21.0337 48.5449 21.2078 48.5131 21.3765C48.4887 21.8144 48.3588 22.2405 48.1342 22.6201C47.9096 22.9998 47.5964 23.3223 47.2203 23.5615C47.0388 23.6712 46.8311 23.7325 46.6179 23.7395C46.4878 23.7401 46.3598 23.7064 46.2477 23.6419Z" fill="#1A89FF"/>
<path d="M38.2908 30.8917C38.0968 30.6477 38.2114 30.1395 38.5376 29.8035C38.5998 29.7295 38.6771 29.6691 38.7647 29.6261C38.8522 29.583 38.948 29.5584 39.0459 29.5537C39.0961 29.5553 39.1453 29.5677 39.19 29.5901C39.2347 29.6124 39.2738 29.6441 39.3045 29.6829C39.6865 30.1596 40.5621 30.8314 42.1488 29.95L42.1958 30.0275L42.1781 29.9327C43.7913 29.0226 44.6816 27.3084 45.0694 26.3667C45.1227 26.2115 45.2148 26.0719 45.3375 25.9606C45.4602 25.8492 45.6094 25.7697 45.7717 25.7293C45.8332 25.7201 45.8961 25.7275 45.9536 25.7508C46.0111 25.7741 46.061 25.8123 46.0978 25.8613C46.157 25.9659 46.188 26.0835 46.188 26.203C46.188 26.3225 46.157 26.4401 46.0978 26.5447C45.5895 27.7764 44.4171 30.0246 42.2633 31.2391L42.2222 31.2621C41.6244 31.6263 40.9398 31.8321 40.2359 31.8593C39.8569 31.8577 39.4835 31.7693 39.1457 31.6013C38.808 31.4332 38.5151 31.1902 38.2908 30.8917Z" fill="#1A89FF"/>
<path d="M57.2241 67.5824L59.5573 66.2184L58.7541 64.9065L56.4208 66.2704L55.9704 65.5348C55.9176 65.4487 55.8554 65.3692 55.7872 65.301C55.719 65.2328 55.6462 65.1771 55.5729 65.1373C55.4996 65.0974 55.4273 65.0741 55.3601 65.0686C55.2929 65.0631 55.2321 65.0757 55.1813 65.1055L52.9889 66.3872C52.938 66.4169 52.8979 66.4633 52.8711 66.5238C52.8442 66.5842 52.8311 66.6575 52.8324 66.7395C52.8337 66.8214 52.8494 66.9104 52.8787 67.0014C52.908 67.0924 52.9502 67.1835 53.003 67.2697L54.7071 70.0529C54.7598 70.139 54.8221 70.2185 54.8903 70.2867C54.9585 70.3549 55.0313 70.4105 55.1046 70.4504C55.1778 70.4903 55.2501 70.5136 55.3173 70.5191C55.3845 70.5245 55.4453 70.512 55.4962 70.4822L57.6885 69.2005C57.7395 69.1708 57.7795 69.1244 57.8063 69.0639C57.8332 69.0035 57.8463 68.9302 57.845 68.8482C57.8437 68.7663 57.828 68.6773 57.7987 68.5863C57.7694 68.4953 57.7272 68.4042 57.6745 68.318L57.2241 67.5824Z" fill="#1A89FF"/>
<path d="M65.6978 75.5956C64.81 75.1114 63.9526 74.2535 63.3136 73.2099C62.6747 72.1664 62.3064 71.0225 62.2896 70.0292C62.2848 69.7032 62.3192 69.4 62.3918 69.1278L57.4704 61.0901C57.1906 61.0238 56.9009 60.9101 56.6092 60.7518C56.0637 60.4575 55.5236 60.0177 55.0362 59.4709C54.5489 58.9242 54.1292 58.2873 53.8139 57.6159C53.4986 56.9446 53.2974 56.2595 53.2279 55.6205C53.1584 54.9815 53.2227 54.4083 53.4152 53.9511L53.7122 53.233L55.5939 56.3061C55.7019 56.4774 55.8442 56.6176 55.9911 56.6975C56.138 56.7775 56.2783 56.791 56.3827 56.7353C56.4336 56.7057 56.4737 56.6593 56.5006 56.5988C56.5274 56.5384 56.5406 56.4651 56.5393 56.3831C56.538 56.3012 56.5222 56.2121 56.4929 56.1211C56.4636 56.0301 56.4214 55.939 56.3686 55.8528L54.4867 52.7787L55.2755 52.8632C55.7788 52.9139 56.3261 53.1298 56.8694 53.4918C57.4126 53.8539 57.9353 54.3511 58.3915 54.94C58.8477 55.5288 59.2236 56.1913 59.4862 56.8693C59.7488 57.5474 59.8901 58.2203 59.8978 58.8292C59.9026 59.1552 59.8682 59.4584 59.7955 59.7306L64.7169 67.7681C64.9968 67.8345 65.2864 67.9483 65.5781 68.1065C66.1236 68.4009 66.6637 68.8407 67.1511 69.3874C67.6385 69.9341 68.0582 70.5711 68.3735 71.2424C68.6888 71.9137 68.89 72.5989 68.9595 73.2379C69.029 73.8768 68.9646 74.4501 68.7721 74.9073L68.4754 75.6255L66.5935 72.5522C66.4854 72.381 66.3431 72.2408 66.1962 72.1608C66.0493 72.0809 65.9091 72.0674 65.8046 72.123C65.7537 72.1527 65.7136 72.199 65.6867 72.2595C65.6598 72.3199 65.6466 72.3931 65.6479 72.4751C65.6492 72.5571 65.6649 72.6461 65.6942 72.7371C65.7234 72.8281 65.7657 72.9193 65.8185 73.0054L67.7001 76.0788L66.9121 75.9952C66.5271 75.9567 66.1151 75.8211 65.6978 75.5956Z" fill="#1A89FF"/>
<path d="M68.2858 60.2071C67.9614 59.6931 67.5345 59.2725 67.0936 59.0326C66.6527 58.7927 66.2318 58.752 65.9184 58.919L61.8184 61.3158L62.6217 62.6276L66.7214 60.2307C66.8259 60.1752 66.9662 60.1888 67.1131 60.2687C67.2601 60.3487 67.4024 60.4888 67.5105 60.6601C67.6168 60.8341 67.678 61.0248 67.6807 61.1902C67.6833 61.3557 67.6272 61.4825 67.5246 61.5429L63.4249 63.9398L64.2281 65.2517L68.3279 62.8551C68.6359 62.6744 68.8045 62.2941 68.7966 61.7976C68.7887 61.3012 68.605 60.7292 68.2858 60.2071Z" fill="#1A89FF"/>
<defs>
<filter id="filter0_f_3_2" x="37.0478" y="61.3832" width="50.1442" height="32.2255" filterUnits="userSpaceOnUse" color-interpolation-filters="sRGB">
<feFlood flood-opacity="0" result="BackgroundImageFix"/>
<feBlend mode="normal" in="SourceGraphic" in2="BackgroundImageFix" result="shape"/>
<feGaussianBlur stdDeviation="2.5" result="effect1_foregroundBlur_3_2"/>
</filter>
<filter id="filter1_f_3_2" x="10.0119" y="54.4231" width="48.6849" height="34.1781" filterUnits="userSpaceOnUse" color-interpolation-filters="sRGB">
<feFlood flood-opacity="0" result="BackgroundImageFix"/>
<feBlend mode="normal" in="SourceGraphic" in2="BackgroundImageFix" result="shape"/>
<feGaussianBlur stdDeviation="2.5" result="effect1_foregroundBlur_3_2"/>
</filter>
<linearGradient id="paint0_linear_3_2" x1="48.8686" y1="38.2679" x2="59.6757" y2="38.2679" gradientUnits="userSpaceOnUse">
<stop stop-color="#BEBEBE"/>
<stop offset="1" stop-color="#DCDCDC"/>
</linearGradient>
<linearGradient id="paint1_linear_3_2" x1="16.7501" y1="72.5016" x2="48.4916" y2="40.0185" gradientUnits="userSpaceOnUse">
<stop stop-color="#DCDCDC"/>
<stop offset="0.49" stop-color="#F3F3F3"/>
<stop offset="0.62" stop-color="#EBEBEB"/>
<stop offset="0.83" stop-color="#D5D5D5"/>
<stop offset="1" stop-color="#BEBEBE"/>
</linearGradient>
<linearGradient id="paint2_linear_3_2" x1="13.8206" y1="55.9202" x2="24.1634" y2="55.9202" gradientUnits="userSpaceOnUse">
<stop stop-color="#BEBEBE"/>
<stop offset="1" stop-color="#DCDCDC"/>
</linearGradient>
<linearGradient id="paint3_linear_3_2" x1="24.9685" y1="78.2613" x2="27.0061" y2="72.8433" gradientUnits="userSpaceOnUse">
<stop stop-color="#DCDCDC"/>
<stop offset="1" stop-color="#F3F3F3"/>
</linearGradient>
<linearGradient id="paint4_linear_3_2" x1="67.6797" y1="84.0124" x2="67.6797" y2="47.6683" gradientUnits="userSpaceOnUse">
<stop stop-color="#BEBEBE"/>
<stop offset="1" stop-color="#DCDCDC"/>
</linearGradient>
<linearGradient id="paint5_linear_3_2" x1="42.8569" y1="68.0598" x2="53.1997" y2="68.0598" gradientUnits="userSpaceOnUse">
<stop stop-color="#BEBEBE"/>
<stop offset="1" stop-color="#DCDCDC"/>
</linearGradient>
<linearGradient id="paint6_linear_3_2" x1="33.8921" y1="39.4394" x2="33.8921" y2="12.8977" gradientUnits="userSpaceOnUse">
<stop stop-color="#DCDCDC"/>
<stop offset="1" stop-color="#F3F3F3"/>
</linearGradient>
<linearGradient id="paint7_linear_3_2" x1="51.5719" y1="27.2395" x2="30.8862" y2="27.2395" gradientUnits="userSpaceOnUse">
<stop stop-color="#1E1E1E"/>
<stop offset="1" stop-color="#3C3C3C"/>
</linearGradient>
</defs>
</svg>
