<svg width="74" height="19" viewBox="0 0 74 19" fill="none" xmlns="http://www.w3.org/2000/svg">
<path d="M10.8801 18H0.848145V1.24805H4.49614V14.76H10.8801V18Z" fill="white"/>
<path d="M18.4043 18.288C14.5403 18.288 12.3563 15.72 12.3563 11.688C12.3563 7.70405 14.4683 5.11205 18.2603 5.11205C22.4363 5.11205 24.1163 8.13605 24.1163 11.544V12.6H16.0283V12.792C16.0283 14.448 16.9163 15.504 18.8123 15.504C20.3003 15.504 21.1163 14.808 21.9083 13.992L23.6843 16.2C22.5563 17.496 20.7083 18.288 18.4043 18.288ZM18.3323 7.72805C16.9163 7.72805 16.0283 8.76005 16.0283 10.32V10.512H20.4443V10.296C20.4443 8.76005 19.7483 7.72805 18.3323 7.72805Z" fill="white"/>
<path d="M28.7219 18H25.0259L29.1779 11.592L25.0739 5.40005H29.1059L31.4579 9.36005H31.5539L33.8339 5.40005H37.5779L33.4019 11.712L37.6019 18H33.5699L31.1459 13.896H31.0499L28.7219 18Z" fill="white"/>
<path d="M41.04 18V0.23999H42.96V7.63199H43.056C43.704 6.07199 44.976 5.32799 46.68 5.32799C49.776 5.32799 51.72 7.84799 51.72 11.808C51.72 15.768 49.776 18.288 46.68 18.288C44.976 18.288 43.8 17.52 43.056 15.984H42.96V18H41.04ZM46.152 16.56C48.312 16.56 49.656 15.072 49.656 12.864V10.752C49.656 8.54399 48.312 7.05599 46.152 7.05599C44.4 7.05599 42.96 8.06399 42.96 9.43199V14.04C42.96 15.648 44.4 16.56 46.152 16.56Z" fill="white"/>
<path d="M59.6419 18.288C56.3299 18.288 54.0499 15.744 54.0499 11.808C54.0499 7.87199 56.3299 5.32799 59.6419 5.32799C62.9539 5.32799 65.2339 7.87199 65.2339 11.808C65.2339 15.744 62.9539 18.288 59.6419 18.288ZM59.6419 16.584C61.7059 16.584 63.1699 15.312 63.1699 12.696V10.92C63.1699 8.30399 61.7059 7.03199 59.6419 7.03199C57.5779 7.03199 56.1139 8.30399 56.1139 10.92V12.696C56.1139 15.312 57.5779 16.584 59.6419 16.584Z" fill="white"/>
<path d="M73.5276 18H71.1276C69.8076 18 69.0876 17.16 69.0876 15.96V7.29599H67.0476V5.61599H68.1996C69.0156 5.61599 69.2796 5.32799 69.2796 4.48799V2.18399H71.0076V5.61599H73.7196V7.29599H71.0076V16.32H73.5276V18Z" fill="white"/>
</svg>
